<svg width="100" height="100" viewBox="0 0 100 100" fill="none" xmlns="http://www.w3.org/2000/svg">
<rect x="1.5" y="2.5" width="97" height="95.4733" rx="47.7366" stroke="white" stroke-width="3"/>
<path fill-rule="evenodd" clip-rule="evenodd" d="M50 97C75.9574 97 97 75.9574 97 50C97 24.0426 75.9574 3 50 3C24.0426 3 3 24.0426 3 50C3 75.9574 24.0426 97 50 97ZM50 100C77.6142 100 100 77.6142 100 50C100 22.3858 77.6142 0 50 0C22.3858 0 0 22.3858 0 50C0 77.6142 22.3858 100 50 100Z" fill="white"/>
<path fill-rule="evenodd" clip-rule="evenodd" d="M43.7424 30.4281C39.8579 30.4281 36.5599 33.8086 36.5599 38.0898C36.5599 40.6294 37.1101 42.12 37.8788 43.0989C38.6613 44.0954 39.8279 44.7668 41.4868 45.3577C41.4882 45.3582 41.4896 45.3587 41.491 45.3592L59.515 51.6466C61.3963 52.3162 63.1886 53.2483 64.4831 54.906C65.7909 56.5808 66.4401 58.7992 66.4401 61.7424C66.4401 67.5876 61.9474 72.404 56.2574 72.404H45.0001C38.6005 72.404 33.5 66.9983 33.5 60.425C33.5 59.5966 34.1716 58.925 35 58.925C35.8284 58.925 36.5 59.5966 36.5 60.425C36.5 65.4685 40.3816 69.404 45.0001 69.404H56.2574C60.1481 69.404 63.4401 66.0768 63.4401 61.7424C63.4401 59.2365 62.8916 57.7423 62.1186 56.7524C61.333 55.7464 60.1628 55.0621 58.5135 54.4745L40.485 48.1855C38.6132 47.5193 36.817 46.6042 35.5194 44.9518C34.2074 43.2811 33.5599 41.0591 33.5599 38.0898C33.5599 32.311 38.0461 27.4281 43.7424 27.4281H54.9999C61.3995 27.4281 66.5 32.8338 66.5 39.4071C66.5 40.2355 65.8284 40.9071 65 40.9071C64.1716 40.9071 63.5 40.2355 63.5 39.4071C63.5 34.3637 59.6184 30.4281 54.9999 30.4281H43.7424Z" fill="white"/>
<path fill-rule="evenodd" clip-rule="evenodd" d="M49.9701 21.5C50.7985 21.5 51.4701 22.1716 51.4701 23V76.8921C51.4701 77.7205 50.7985 78.3921 49.9701 78.3921C49.1417 78.3921 48.4701 77.7205 48.4701 76.8921V23C48.4701 22.1716 49.1417 21.5 49.9701 21.5Z" fill="white"/>
</svg>
