<svg width="20" height="20" viewBox="0 0 20 20" fill="none" xmlns="http://www.w3.org/2000/svg">
<path d="M18.9844 7.50022C18.8875 7.20124 18.7041 6.93773 18.4574 6.74303C18.2107 6.54833 17.9117 6.4312 17.5984 6.40647L13.1773 6.04944L11.4711 1.92366C11.3512 1.63206 11.1473 1.38268 10.8854 1.20719C10.6234 1.03169 10.3153 0.937988 9.99998 0.937988C9.6847 0.937988 9.37652 1.03169 9.11459 1.20719C8.85267 1.38268 8.6488 1.63206 8.52889 1.92366L6.8242 6.05022L2.40311 6.40647C2.08922 6.43236 1.78998 6.55044 1.54301 6.74589C1.29603 6.94133 1.11233 7.20541 1.01499 7.50495C0.917645 7.80448 0.911009 8.12611 0.995911 8.4294C1.08081 8.7327 1.25347 9.00413 1.49217 9.2096L4.86561 12.119L3.83436 16.4705C3.75914 16.7773 3.77694 17.0996 3.88547 17.3962C3.99401 17.6929 4.18838 17.9505 4.44383 18.1364C4.69927 18.3222 5.00425 18.4278 5.31991 18.4397C5.63558 18.4517 5.94765 18.3694 6.21639 18.2033L9.99998 15.8744L13.7836 18.2033C14.0522 18.3683 14.3638 18.4497 14.6788 18.4375C14.9938 18.4252 15.2981 18.3198 15.5531 18.1345C15.8082 17.9492 16.0025 17.6924 16.1116 17.3966C16.2206 17.1009 16.2394 16.7794 16.1656 16.4729L15.1344 12.1213L18.5078 9.21194C18.7479 9.00598 18.9214 8.7333 19.0063 8.42853C19.0911 8.12376 19.0835 7.80064 18.9844 7.50022ZM13.4789 11.0705C13.3488 11.1827 13.252 11.3284 13.1991 11.4918C13.1462 11.6552 13.1392 11.83 13.1789 11.9971L14.1859 16.2502L10.4914 13.9783C10.3436 13.8874 10.1735 13.8392 9.99998 13.8392C9.82646 13.8392 9.65635 13.8874 9.50858 13.9783L5.81405 16.2502L6.82108 12.0002C6.86074 11.8331 6.85374 11.6583 6.80084 11.4949C6.74793 11.3315 6.65116 11.1858 6.52108 11.0737L3.21873 8.2221L7.54686 7.87288C7.7191 7.85904 7.88416 7.79787 8.02382 7.69613C8.16347 7.59438 8.2723 7.45602 8.33827 7.29631L9.99998 3.27288L11.6617 7.29631C11.7277 7.45602 11.8365 7.59438 11.9762 7.69613C12.1158 7.79787 12.2809 7.85904 12.4531 7.87288L16.7812 8.2221L13.4789 11.0705Z" fill="#F8F0E5"/>
</svg>
