<svg width="392" height="49" viewBox="0 0 392 49" fill="none" xmlns="http://www.w3.org/2000/svg">
<path d="M0 0H392L338.154 49H0V0Z" fill="#D7BF7D"/>
<path d="M179.472 17.824H199.824V20.656H179.472V17.824ZM178.68 32.344H200.544V35.224H178.68V32.344ZM188.04 13.624H191.064V19.408H188.04V13.624ZM193.464 21.496L196.776 22.072C195.84 26.032 194.544 30.424 193.416 33.256L190.608 32.632C191.736 29.704 192.912 25.048 193.464 21.496ZM182.568 22.288L185.304 21.568C186.456 24.544 187.344 28.264 187.584 30.808L184.632 31.6C184.464 29.104 183.6 25.216 182.568 22.288ZM210.048 19.456H216.384V22H210.048V19.456ZM208.752 14.8H211.488V32.632L208.752 33.112V14.8ZM207.096 32.056C209.4 31.6 212.952 30.736 216.288 29.896L216.624 32.608C213.648 33.472 210.408 34.36 207.936 35.032L207.096 32.056ZM213.024 28.216L215.352 27.088C216.84 29.152 218.448 31.864 219.024 33.712L216.504 35.008C215.976 33.16 214.464 30.328 213.024 28.216ZM210.024 14.8H218.112V26.608H210.024V23.944H215.448V17.464H210.024V14.8ZM225.792 14.752H228.768V29.32C228.768 30.712 228.552 31.624 227.664 32.152C226.8 32.704 225.672 32.776 224.088 32.776C224.016 31.888 223.56 30.448 223.104 29.608C224.04 29.68 225.048 29.656 225.384 29.656C225.696 29.656 225.792 29.56 225.792 29.248V14.752ZM219.432 14.752H227.328V17.656H222.384V36.136H219.432V14.752ZM236.376 14.632H244.032V17.128H236.376V14.632ZM235.824 22.36H244.944V24.904H235.824V22.36ZM239.4 23.752H242.16V33.088C242.16 34.408 241.944 35.176 241.032 35.608C240.168 36.064 238.968 36.112 237.336 36.112C237.24 35.296 236.856 34.12 236.472 33.352C237.504 33.376 238.632 33.376 238.968 33.376C239.304 33.376 239.4 33.304 239.4 33.016V23.752ZM243.168 14.632H243.768L244.296 14.488L246.048 15.736C244.872 17.632 243.168 19.816 241.632 21.184C241.248 20.68 240.504 19.888 240.024 19.48C241.224 18.352 242.568 16.432 243.168 15.16V14.632ZM244.104 22.36H244.464L244.848 22.264L246.624 22.672C246.12 24.688 245.448 26.944 244.92 28.384L242.784 27.904C243.216 26.608 243.768 24.448 244.104 22.696V22.36ZM236.808 19.84L238.248 17.944C240.216 18.856 242.76 20.32 243.984 21.472L242.424 23.608C241.272 22.408 238.8 20.824 236.808 19.84ZM245.928 14.56H258.216V16.984H245.928V14.56ZM249.384 24.184V25.72H254.736V24.184H249.384ZM249.384 27.688V29.224H254.736V27.688H249.384ZM249.384 20.704V22.216H254.736V20.704H249.384ZM246.744 18.592H257.496V31.336H246.744V18.592ZM250.608 15.88L253.896 16.24C253.44 17.752 252.936 19.264 252.528 20.296L250.032 19.84C250.272 18.688 250.536 17.056 250.608 15.88ZM249.096 31.36L251.448 32.896C250.128 34.168 247.848 35.512 245.976 36.232C245.52 35.704 244.68 34.84 244.056 34.36C245.928 33.688 248.04 32.392 249.096 31.36ZM252.576 32.968L254.712 31.528C256.056 32.392 257.88 33.712 258.816 34.624L256.56 36.232C255.72 35.344 253.944 33.928 252.576 32.968ZM275.832 24.496L278.136 23.32C279.384 24.976 280.752 27.208 281.28 28.744L278.76 30.04C278.328 28.552 277.056 26.224 275.832 24.496ZM276.624 17.704H285.24V20.416H276.624V17.704ZM284.016 17.704H286.8C286.8 17.704 286.8 18.664 286.776 19.024C286.416 29.608 286.104 33.424 285.096 34.696C284.424 35.608 283.776 35.872 282.768 36.04C281.88 36.16 280.416 36.16 279 36.088C278.952 35.272 278.568 34.024 278.04 33.208C279.552 33.328 280.944 33.328 281.568 33.328C282.048 33.328 282.336 33.256 282.6 32.92C283.392 32.104 283.728 28.048 284.016 18.28V17.704ZM276.768 13.6L279.744 14.248C278.736 17.824 277.08 21.352 275.256 23.536C274.68 23.056 273.408 22.192 272.688 21.784C274.512 19.888 275.976 16.744 276.768 13.6ZM268.32 13.648L270.864 14.536C269.88 16.408 268.752 18.544 267.816 19.864L265.872 19.072C266.736 17.632 267.768 15.328 268.32 13.648ZM271.2 16.48L273.624 17.488C271.848 20.248 269.496 23.584 267.648 25.624L265.896 24.736C267.744 22.576 269.928 19.048 271.2 16.48ZM264.624 19.336L265.968 17.344C267.264 18.448 268.752 19.984 269.376 21.04L267.912 23.296C267.312 22.144 265.848 20.488 264.624 19.336ZM270.6 22.264L272.64 21.376C273.6 22.984 274.56 25.072 274.872 26.464L272.688 27.472C272.4 26.104 271.512 23.92 270.6 22.264ZM264.6 24.208C266.832 24.136 270.144 23.992 273.36 23.824V26.104C270.336 26.344 267.216 26.56 264.84 26.704L264.6 24.208ZM271.032 28.288L273.144 27.592C273.768 29.032 274.416 30.904 274.704 32.128L272.448 32.944C272.232 31.696 271.608 29.752 271.032 28.288ZM265.632 27.736L268.008 28.144C267.768 30.448 267.24 32.848 266.544 34.384C266.04 34.072 264.96 33.568 264.36 33.328C265.056 31.912 265.44 29.776 265.632 27.736ZM268.416 25.48H270.984V36.184H268.416V25.48Z" fill="black"/>
</svg>
