<svg width="100" height="99" viewBox="0 0 100 99" fill="none" xmlns="http://www.w3.org/2000/svg">
<rect x="1.5" y="1.5" width="97" height="95.4733" rx="47.7366" stroke="white" stroke-width="3"/>
<path fill-rule="evenodd" clip-rule="evenodd" d="M61.2622 55.2495C65.4567 57.5035 68.5709 61.1535 70.1825 65.9136C73.3983 65.4676 76.1943 64.4791 78.6668 62.969L79.4831 62.45L79.2119 61.5346C77.308 55.5723 72.2612 52.1609 65.3366 52.1609H65.287C63.9904 52.1489 62.7571 52.2625 61.5962 52.4942C60.2305 52.7669 58.9651 53.2031 57.8147 53.791C59.0307 54.1814 60.1823 54.6692 61.2622 55.2495ZM65.3279 54.769H65.3366C70.8398 54.769 74.6122 57.1838 76.3447 61.2908C74.9698 62.0173 73.4719 62.5778 71.8206 62.9623C70.3209 59.6428 68.1062 56.8776 65.3279 54.769Z" fill="white"/>
<path fill-rule="evenodd" clip-rule="evenodd" d="M65.0471 46.2089C65.1265 46.2117 65.2064 46.2131 65.2868 46.2131C68.9652 46.2131 71.9532 43.2244 71.9532 39.544C71.9532 36.2281 69.4902 33.4536 66.2771 32.9743C66.8131 34.6125 67.102 36.358 67.102 38.1591C67.102 41.0742 66.3691 43.8149 65.0471 46.2089ZM63.4138 48.6309C64.0169 48.7558 64.6423 48.8213 65.2868 48.8213C70.4066 48.8213 74.5613 44.6639 74.5613 39.544C74.5613 34.4503 70.4066 30.293 65.2868 30.293C65.2348 30.293 65.183 30.2934 65.1313 30.2943C64.1735 30.3112 63.2603 30.4828 62.3917 30.7624C62.8547 31.5093 63.2493 32.3032 63.5673 33.1342C64.1666 34.7 64.4939 36.3973 64.4939 38.1591C64.4939 40.8751 63.7449 43.4003 62.4098 45.5526C61.9449 46.3022 61.4088 47.0066 60.8086 47.658C61.6168 48.1079 62.4891 48.4394 63.4138 48.6309Z" fill="white"/>
<path fill-rule="evenodd" clip-rule="evenodd" d="M24.215 61.2959C25.4899 61.958 26.9123 62.4877 28.4718 62.8758C29.9709 59.5987 32.1737 56.8604 34.9253 54.7702C29.568 54.8514 25.8979 57.2603 24.215 61.2959ZM38.7229 52.4629C37.6468 52.2623 36.5064 52.1599 35.3058 52.1599H35.2067C28.2821 52.1599 23.2353 55.574 21.3548 61.5336L21.0575 62.449L21.8738 62.9681C24.2238 64.4051 26.9962 65.3675 30.0869 65.8631C31.7123 61.1047 34.8585 57.4453 39.0699 55.2073C40.1769 54.6191 41.3575 54.129 42.6034 53.7431C41.4257 53.155 40.1292 52.7251 38.7229 52.4629Z" fill="white"/>
<path fill-rule="evenodd" clip-rule="evenodd" d="M39.7347 47.6572C39.1339 47.0058 38.5974 46.3016 38.1321 45.5521C36.7958 43.3997 36.0468 40.8744 36.0468 38.1583C36.0468 36.398 36.3741 34.7 36.9742 33.1343C37.2926 32.3036 37.6878 31.5101 38.1516 30.7642C37.283 30.4821 36.3699 30.3104 35.4122 30.2935C35.3604 30.2926 35.3085 30.2921 35.2565 30.2921C30.1368 30.2921 25.9794 34.4495 25.9794 39.5432C25.9794 44.6657 30.1368 48.8204 35.2565 48.8204C35.9011 48.8204 36.5261 48.755 37.1288 48.6301C38.053 48.4385 38.9249 48.1071 39.7347 47.6572ZM34.2644 32.9737C31.0511 33.4538 28.5875 36.2286 28.5875 39.5432C28.5875 43.2248 31.5767 46.2123 35.2565 46.2123C35.3363 46.2123 35.4156 46.2109 35.4945 46.2082C34.1715 43.8139 33.4387 41.0732 33.4387 38.1583C33.4387 36.3587 33.7275 34.6126 34.2644 32.9737Z" fill="white"/>
<path fill-rule="evenodd" clip-rule="evenodd" d="M35.1009 66.8758C39.1334 69.0822 43.9821 70.2132 50.007 70.2132H50.2287C56.2596 70.2132 61.1114 69.0818 65.1444 66.8748C62.8857 61.101 57.6858 57.7124 50.1817 57.7124H50.0638C42.561 57.7124 37.3573 61.1018 35.1009 66.8758ZM67.458 68.5492C62.7425 71.4234 57.1063 72.8214 50.2287 72.8214H50.007C43.1345 72.8214 37.5009 71.4234 32.7854 68.5492L31.9586 68.0432L32.2507 67.12C34.6659 59.4807 41.1575 55.1042 50.0617 55.1042H50.1817C59.0885 55.1042 65.5776 59.4807 67.9953 67.12L68.2874 68.0432L67.458 68.5492Z" fill="white"/>
<path fill-rule="evenodd" clip-rule="evenodd" d="M50.271 47.3195C55.3144 47.3195 59.4203 43.2135 59.4203 38.1701C59.4203 33.1296 55.3147 29.0233 50.271 29.0233C45.2271 29.0233 41.1216 33.1296 41.1216 38.1701C41.1216 43.2135 45.2275 47.3195 50.271 47.3195ZM62.0285 38.1701C62.0285 44.654 56.7548 49.9276 50.271 49.9276C43.7871 49.9276 38.5134 44.654 38.5134 38.1701C38.5134 31.6888 43.7871 26.4152 50.271 26.4152C56.7548 26.4152 62.0285 31.6888 62.0285 38.1701Z" fill="white"/>
</svg>
